<?xml version="1.0" encoding="UTF-8"?>
<svg version="1.1" viewBox="0 0 30 30" xmlns="http://www.w3.org/2000/svg">
 <g fill="#64a3c8" fill-rule="evenodd">
  <path d="M28.73,14l-5.35-3.8a.81.81,0,0,0-.94,0L17.09,14a.64.64,0,0,0,.37,1.16h1v6.13a.71.71,0,0,0,.71.71h1.73a.71.71,0,0,0,.71-.71v-2a1.29,1.29,0,0,1,2.58,0v2a.71.71,0,0,0,.71.71h1.64a.71.71,0,0,0,.71-.71V15.11h1.1A.64.64,0,0,0,28.73,14Z"/>
  <path d="M17,9.46a.58.58,0,0,0,.58.59H19a.58.58,0,0,0,.59-.59V4.36h.92a.53.53,0,0,0,.3-1L16.35.24a.66.66,0,0,0-.78,0L11.12,3.4a.53.53,0,0,0,.31,1h.84v5.1a.59.59,0,0,0,.59.59H14.3a.59.59,0,0,0,.59-.59V7.77a1.08,1.08,0,0,1,2.15,0Z"/>
 </g>
 <path d="m4.6883 3.8204v0.79284h0.79284v0.79284h0.80195v-0.79284h0.79284v-0.79284h-0.79284v-0.79284h-0.80195v0.79284zm2.7339 11.61v-0.95688h-1.0389v-0.91131h-1.0024v0.91131h-1.0116v0.91131h1.0116v0.91131h1.0024v-0.91131zm-1.5401-9.6963a3.3992 3.3992 0 0 0-2.6337 1.2303l-1.4581-2.5152a6.3063 6.3063 0 0 1 4.0189-1.8226h0.14581a6.3063 6.3063 0 0 1 4.0189 1.8226l-1.4399 2.5152a3.3992 3.3992 0 0 0-2.6519-1.2303zm5.8688 13.67a0.91131 0.91131 0 0 1-0.47388 1.1847 0.80195 0.80195 0 0 1-0.35541 0.07291 0.91131 0.91131 0 0 1-0.82929-0.53767l-1.9684-4.5566 2.3147 11.3h-2.1507l-0.1367 2.3238a0.82018 0.82018 0 0 1-0.77461 0.77461 0.81107 0.81107 0 0 1-0.85663-0.77461l-0.1367-2.3238h-1.0024l-0.1367 2.3238a0.81107 0.81107 0 0 1-0.85663 0.77461 0.82018 0.82018 0 0 1-0.77461-0.77461l-0.1367-2.3238h-2.1507l2.333-11.309-1.9684 4.5565a0.91131 0.91131 0 0 1-0.82929 0.53767 0.80195 0.80195 0 0 1-0.35541-0.072905 0.91131 0.91131 0 0 1-0.47388-1.1847l0.38275-0.9022 1.2394-2.8433 1.1209-2.5608a2.2874 2.2874 0 0 1 0.91131-1.1482 3.8093 3.8093 0 0 1 2.0231-0.43743h0.4192a3.8093 3.8093 0 0 1 2.0231 0.43743 2.3603 2.3603 0 0 1 0.91131 1.1482c0.36452 0.85663 0.73816 1.7041 1.1118 2.5608l1.1756 2.8433zm-7.9922-10.553a2.1234 2.1234 0 1 1 2.1234 2.1142 2.1234 2.1234 0 0 1-2.1234-2.1142z" fill="#64a3c8" fill-rule="evenodd" stroke-width=".91131"/>
</svg>
