<svg width="30" height="30" viewBox="0 0 30 30" fill="none" xmlns="http://www.w3.org/2000/svg">
<path d="M14.2002 7.125C14.1684 7.125 14.1379 7.13825 14.1155 7.16181C13.8239 7.46794 13.8116 7.96013 14.0874 8.28188L15.0001 9.34663L15.9127 8.28188C16.1886 7.96013 16.1762 7.46794 15.8847 7.16181C15.8622 7.13825 15.8318 7.125 15.8 7.125H14.2002Z" fill="#46AD9A"/>
<path fill-rule="evenodd" clip-rule="evenodd" d="M23.3094 3.75H6.69062C4.73687 8.65494 3.74509 12.5664 3.75002 16.1572C3.75484 19.6663 4.71098 22.8196 6.56519 26.2501H23.4348C25.289 22.8196 26.2452 19.6663 26.25 16.1572C26.2549 12.5664 25.2631 8.65494 23.3094 3.75ZM15.7208 10.1875L16.7091 9.0345C17.3661 8.26794 17.3368 7.09556 16.6423 6.36631C16.4189 6.13178 16.1159 6 15.8 6H14.2002C13.8843 6 13.5812 6.13178 13.3579 6.36631C12.6634 7.09556 12.6341 8.26794 13.2911 9.0345L14.2794 10.1875L11.9233 12.9362L12.7197 13.6888L15.0001 11.0284L17.2805 13.6888L18.0769 12.9362L15.7208 10.1875ZM15.5357 19.7164L19.9245 15.1082L19.1669 14.3127L15 18.6879L10.8331 14.3127L10.0755 15.1082L14.4643 19.7164V26.2499H15.5357V19.7164Z" fill="#46AD9A"/>
</svg>
