<svg width="30" height="30" viewBox="0 0 30 30" fill="none" xmlns="http://www.w3.org/2000/svg">
<path d="M16.461 25.3466L17.2889 25.4911C17.8095 25.5802 18.3199 25.6376 18.8473 25.6436L19.4318 25.6926L20.0162 25.6416H20.4058C21.8756 25.4926 23.4584 24.9505 24.3335 23.6634C24.6516 23.1956 24.8186 22.8164 24.9827 22.2772C25.1766 21.6396 25.2272 20.9599 25.2272 20.2971C25.5969 20.2654 26.003 20.1287 26.3473 19.9901C26.6727 19.8589 26.8431 19.7673 27.1266 19.5535C27.3014 19.4213 27.4251 19.2926 27.5488 19.1089C27.6764 18.9203 27.7271 18.7381 27.7597 18.5149C27.9409 17.2728 26.9522 16.6654 26.3868 15.7426C26.2003 15.4381 26.0756 15.1471 25.9787 14.802C25.5516 13.2872 25.668 11.4332 25.6655 9.85151C25.6646 9.2921 25.5628 8.66487 25.4425 8.11883C25.2277 7.14359 24.7422 5.95893 24.168 5.14854C22.7084 3.08616 20.0561 1.77378 17.6785 1.16982C16.799 0.946061 15.9525 0.802497 15.0486 0.738141L14.5616 0.693091C13.0222 0.674774 11.7379 0.794576 10.2759 1.33913C6.94816 2.57972 4.4941 5.3317 3.59069 8.8119C3.30335 9.92032 3.25027 10.8446 3.26293 11.9802C3.2717 12.7198 3.54929 13.8535 3.79621 14.5545C4.3816 16.2139 5.09459 17.4599 6.14264 18.8614C6.60774 19.4832 7.14004 20.053 7.69475 20.5921C8.14767 21.0327 8.37559 20.9941 8.37657 21.5842V26.9802C8.37657 27.1119 8.37121 27.2485 8.40774 27.3763C8.54313 27.856 9.12413 28.4956 9.4967 28.8079C10.3938 29.5594 11.3756 29.8154 12.5162 29.802L13.0032 29.757C13.7615 29.704 14.4603 29.6134 15.146 29.2416C15.7514 28.9134 16.4517 28.3253 16.461 27.5743V25.3466ZM12.7597 17.7228H10.5194C10.4215 17.7228 10.2374 17.7347 10.1585 17.6723C10.0782 17.6084 10.0607 17.4263 10.0378 17.3268C9.97835 17.0659 9.92478 16.8832 9.82787 16.6337C9.54881 15.9183 9.02722 15.2599 8.42527 14.7971C7.78144 14.3015 7.40546 14.3272 6.88923 13.4654C6.52689 12.8604 6.57121 12.448 6.45628 12.2277L6.1027 11.6832C5.85238 11.2198 5.72576 10.6763 5.74865 10.1485C5.76082 9.86289 5.84166 9.46834 5.9566 9.20794L6.27024 8.58517L6.23371 7.72279C6.23615 7.19755 6.41585 6.66883 6.70952 6.23764C6.94134 5.89755 7.20092 5.65151 7.54865 5.43715L8.12283 5.12378L8.67705 4.35844C9.18257 3.80893 10.0689 3.44161 10.8116 3.49062C10.9344 3.49903 11.19 3.54606 11.2986 3.52131C11.5027 3.47477 11.605 3.26982 12.0779 3.06289C12.5167 2.87131 12.8712 2.81636 13.3441 2.8218C13.6222 2.82527 13.9611 2.89012 14.2207 2.99309C14.3732 3.05349 14.6074 3.20101 14.7564 3.20596C14.9478 3.2119 15.3185 2.97725 15.8766 2.97032C16.5793 2.9619 17.0902 3.06735 17.6785 3.48715C17.997 3.71438 18.2391 4.05547 18.4095 4.13319C18.597 4.21834 18.9136 4.19953 19.1396 4.252C19.6329 4.36586 20.1423 4.63864 20.5012 5.002C20.7053 5.20844 20.924 5.52527 21.0438 5.7921C21.1256 5.97428 21.1699 6.22576 21.3029 6.36685L22.0616 6.93517C22.5701 7.41685 22.9217 8.20151 22.9378 8.91091C22.9748 10.5787 21.7207 11.9268 20.0649 11.9268C19.781 11.9268 19.3071 11.8193 19.0422 11.7104L18.5756 11.5035C18.4582 11.4936 18.1081 11.705 17.9707 11.7594C17.6444 11.8891 17.1998 11.9441 16.8506 11.9287C16.5467 11.9154 16.2063 11.8268 15.9253 11.7104C15.8176 11.6659 15.5527 11.5005 15.4587 11.5193C15.3779 11.5352 15.2605 11.6614 15.1943 11.7169C15.0438 11.8426 14.8792 11.948 14.7077 12.0406C14.211 12.3084 13.8993 12.4208 13.4985 12.8713C12.7314 13.7347 12.7597 14.6119 12.7597 15.6931V17.7228ZM15.2434 4.70299L14.1111 6.88121L13.685 7.7723L15.5357 8.77774L16.7045 9.35646L17.7881 7.27725L18.2629 6.28715L15.2434 4.70299ZM9.98371 5.94062L8.96342 8.7624L7.93826 11.5842L11.737 10.9282L13.7824 10.5941L11.7896 8.11883L9.98371 5.94062ZM22.4999 13.4802C22.9519 13.4342 23.3025 13.4807 23.6688 13.7812C24.3633 14.351 24.3715 15.4535 23.6688 16.0203C23.4355 16.2084 23.0381 16.3362 22.7434 16.3718C21.9204 16.4708 21.2819 15.6297 21.3189 14.8515C21.353 14.1342 21.8123 13.6169 22.4999 13.4802ZM12.7597 20V21.4357H10.5194L10.2282 21.3565L10.1785 20.9901V20H12.7597ZM12.7597 23.0198V24.4555H10.5194C10.1863 24.449 10.1805 24.3777 10.1785 24.0594V23.4654C10.179 23.1317 10.1547 23.0268 10.5194 23.0198H12.7597ZM12.7597 26.0396V27.5248H10.6168C10.5199 27.5248 10.3339 27.5362 10.2564 27.4743C10.1736 27.4074 10.1805 27.2748 10.1785 27.1782V26.4357C10.181 26.0728 10.2111 26.0421 10.5681 26.0396H12.7597Z" fill="#7BB2B2"/>
</svg>
